<svg width="64" height="64" viewBox="0 0 64 64" fill="none" xmlns="http://www.w3.org/2000/svg">
<ellipse cx="9.33333" cy="25.3333" rx="5.33333" ry="5.33333" fill="#00A8E9"/>
<ellipse cx="54.6663" cy="55.9998" rx="5.33333" ry="5.33333" fill="#FFBD17"/>
<ellipse cx="9.33333" cy="7.99984" rx="5.33333" ry="5.33333" fill="#FF4080"/>
<ellipse cx="54.6663" cy="39.9998" rx="5.33333" ry="5.33333" fill="#00AB4E"/>
<path d="M25.333 31.3333L29.9997 36L38.6663 28" stroke="black" stroke-width="3" stroke-linecap="round" stroke-linejoin="round"/>
<path d="M12 6.6665C12 4.45736 10.2091 2.6665 8 2.6665C5.79086 2.6665 4 4.45736 4 6.6665C4 8.87564 5.79086 10.6665 8 10.6665M12 6.6665C12 8.87564 10.2091 10.6665 8 10.6665M12 6.6665H50.673C53.6185 6.6665 56.0063 9.05432 56.0063 11.9998V18.6665M8 10.6665C8 11.1998 8 16.6665 8 19.9998M56.0063 18.6665H51.9195C51.471 18.6665 51.0224 18.8887 50.8231 19.2443C50.6237 19.5998 50.6237 20.0443 50.7732 20.3998L54.9099 26.1332C55.1092 26.4887 55.5577 26.6665 55.9565 26.6665C56.3552 26.6665 56.7539 26.4443 57.0031 26.1332L61.1397 20.3998C61.3889 20.0443 61.3889 19.5998 61.1895 19.2443C60.9902 18.8887 60.5416 18.6665 60.0931 18.6665H56.0063ZM8 19.9998C5.79086 19.9998 4 21.7907 4 23.9998C4 26.209 5.79086 27.9998 8 27.9998C10.2091 27.9998 12 26.209 12 23.9998C12 21.7907 10.2091 19.9998 8 19.9998Z" stroke="black" stroke-width="3"/>
<path d="M52.0003 57.3335C52.0003 59.5426 53.7912 61.3335 56.0003 61.3335C58.2094 61.3335 60.0003 59.5426 60.0003 57.3335C60.0003 55.1244 58.2094 53.3335 56.0003 53.3335M52.0003 57.3335C52.0003 55.1244 53.7912 53.3335 56.0003 53.3335M52.0003 57.3335H11.994C9.78486 57.3335 7.994 55.5426 7.994 53.3335V45.3335M56.0003 53.3335L56.001 45.3335M7.994 45.3335H12.0808C12.5293 45.3335 12.9779 45.1113 13.1772 44.7557C13.3766 44.4002 13.3766 43.9557 13.2271 43.6002L9.09045 37.8668C8.89109 37.5113 8.44255 37.3335 8.04384 37.3335C7.64513 37.3335 7.24642 37.5557 6.99723 37.8668L2.86061 43.6002C2.61142 43.9557 2.61142 44.4002 2.81078 44.7557C3.01013 45.1113 3.45868 45.3335 3.90723 45.3335H7.994ZM56.001 45.3335C58.2101 45.3335 60.001 43.5426 60.001 41.3335C60.001 39.1244 58.2101 37.3335 56.001 37.3335C53.7918 37.3335 52.001 39.1244 52.001 41.3335C52.001 43.5426 53.7918 45.3335 56.001 45.3335Z" stroke="black" stroke-width="3"/>
<circle cx="32.0003" cy="31.9998" r="13.3333" stroke="black" stroke-width="3"/>
</svg>
