<svg width="12" height="9" viewBox="0 0 12 9" fill="none" xmlns="http://www.w3.org/2000/svg">
<path d="M10.7457 0C11.0952 0 11.3916 0.130276 11.6349 0.390829C11.8783 0.651382 12 0.968722 12 1.34285C12 1.71698 11.8752 2.03097 11.6256 2.28485L5.72855 8.59824C5.47894 8.87883 5.17317 9.01245 4.81123 8.99909C4.43682 9.01245 4.1248 8.87883 3.87519 8.59824L0.374415 4.85029C0.124805 4.59642 0 4.28242 0 3.90829C0 3.53416 0.121685 3.21682 0.365055 2.95627C0.608424 2.69572 0.904836 2.56544 1.25429 2.56544C1.60374 2.56544 1.89704 2.69906 2.13417 2.96629L4.79251 5.81233L9.86583 0.40085C10.103 0.133617 10.3963 0 10.7457 0Z" fill="white"/>
</svg>
