<svg width="570" height="467" viewBox="0 0 570 467" fill="none" xmlns="http://www.w3.org/2000/svg">
<path d="M426.221 359.08C392.828 384.86 380.85 413.545 358.345 436.057C335.841 458.932 302.448 475.634 279.58 462.2C257.076 449.128 244.735 406.283 212.067 383.407C179.037 360.532 125.68 357.264 80.3084 327.853C34.9368 298.805 -2.08644 243.614 0.0913625 191.328C2.26922 139.042 43.2852 89.6607 97.0051 88.2083C150.362 86.3928 216.786 132.506 276.314 121.25C335.478 110.357 388.472 42.4579 438.562 30.1126C488.29 17.7672 535.476 61.3391 556.891 113.625C577.944 165.911 573.588 226.549 544.187 268.668C514.424 310.425 459.615 333.3 426.221 359.08Z" fill="#F7F7FC"/>
<path opacity="0.04" d="M483.725 353.087L356.485 426.474C348.27 431.22 338.412 431.22 330.198 426.474L43.2235 260.715C35.1911 255.969 35.1911 244.468 43.2235 239.721L171.741 165.422C179.408 161.041 188.901 161.041 196.568 165.422L440.277 306.171L474.78 326.069L483.542 331.181C492.122 336.11 492.122 348.158 483.725 353.087Z" fill="black"/>
<path d="M479.89 327.895L360.866 396.535C348.087 403.837 332.387 403.837 319.609 396.535L248.23 355.278L105.838 273.129L38.6587 234.245C32.0868 230.411 31.3566 221.831 36.1029 216.902C36.8332 216.172 37.5634 215.625 38.6587 215.077L177.764 134.753C179.955 133.475 182.511 133.475 184.701 134.753L480.073 305.258C481.716 306.171 482.994 307.266 483.907 308.727C488.288 314.569 487.01 323.696 479.89 327.895Z" fill="#77B7FF"/>
<path d="M486.282 300.329L486.464 316.759L465.471 322.418C465.471 322.418 467.844 299.051 468.392 299.051C468.574 299.234 486.282 300.329 486.282 300.329Z" fill="#77B7FF"/>
<path d="M33.7302 205.949L33 225.847L79.3686 225.117L33.7302 205.949Z" fill="#77B7FF"/>
<path d="M479.889 312.013L352.649 385.399C344.434 390.145 334.577 390.145 326.362 385.399L39.3875 219.823C31.3552 215.077 31.3552 203.576 39.3875 198.829L167.905 124.53C175.572 120.149 185.065 120.149 192.732 124.53L436.441 265.279L470.944 285.177L479.707 290.289C488.287 295.218 488.287 307.266 479.889 312.013Z" fill="#BAE0F6"/>
<path d="M60.3828 199.56L89.4088 182.217L174.479 131.285C178.13 129.094 182.876 129.094 186.527 131.285L464.191 294.488C469.303 297.409 469.303 304.711 464.191 307.632L352.286 372.621C344.436 377.185 334.943 377.185 327.093 372.621L60.5654 219.824C52.7156 215.442 52.533 204.124 60.3828 199.56Z" fill="#008FF9"/>
<path d="M98.1712 188.242L87.7656 180.94L143.444 147.897L151.659 153.009C154.398 154.652 154.398 158.668 151.659 160.129L102.735 188.424C101.275 189.155 99.4491 189.155 98.1712 188.242Z" fill="#BAE0F6"/>
<path d="M102.189 176.193L127.564 161.771C128.294 161.406 129.207 161.406 129.937 161.771L130.12 161.954C131.58 162.867 131.763 165.057 130.12 165.97L105.475 180.757C104.745 181.305 103.65 181.122 102.919 180.757L102.189 180.209C100.729 179.297 100.729 177.106 102.189 176.193Z" fill="#77B7FF"/>
<path d="M140.523 159.033C140.523 160.311 139.063 161.224 137.42 161.224C135.777 161.224 134.316 160.311 134.316 159.033C134.316 157.755 135.777 156.842 137.42 156.842C139.245 156.842 140.523 157.938 140.523 159.033Z" fill="#77B7FF"/>
<g opacity="0.5">
<g opacity="0.5">
<g opacity="0.5">
<path opacity="0.5" d="M349.549 310.917C348.271 311.647 348.089 312.743 349.184 313.473C359.042 319.68 362.51 328.26 359.772 336.475C359.407 337.752 361.233 338.848 363.423 338.483C363.971 338.3 364.519 338.118 364.884 337.935C365.431 337.57 365.796 337.205 365.796 336.84C368.9 327.529 365.066 317.854 353.93 310.917C353.018 310.369 351.192 310.187 349.914 310.734C349.732 310.917 349.549 310.917 349.549 310.917Z" fill="white"/>
<path opacity="0.5" d="M347.175 318.949C346.444 319.497 346.079 320.227 346.627 320.592C351.921 325.886 352.834 332.276 349.913 338.3C349.548 339.213 350.461 339.943 352.104 339.943C352.651 339.943 353.381 339.76 353.747 339.578C354.112 339.395 354.294 339.213 354.477 338.847C357.763 332.093 356.85 324.973 350.826 319.132C350.278 318.584 348.818 318.402 347.722 318.767C347.54 318.767 347.357 318.767 347.175 318.949Z" fill="white"/>
<path opacity="0.5" d="M343.525 306.718C338.413 309.639 337.865 314.385 342.247 317.123C343.159 317.671 344.62 317.671 345.533 317.123C346.445 316.576 346.628 315.663 345.715 315.115C342.977 313.29 343.342 310.552 346.445 308.543C349.731 306.718 354.66 306.535 357.399 308.361C362.51 311.647 366.344 315.298 368.717 319.679C369.082 320.409 370.36 320.775 371.638 320.409C372.003 320.409 372.185 320.227 372.368 320.044C373.098 319.679 373.281 319.132 373.098 318.584C370.542 314.02 366.344 309.821 360.867 306.353C356.486 303.614 348.636 303.797 343.525 306.718Z" fill="white"/>
<path opacity="0.5" d="M371.455 322.965C370.908 323.33 370.543 323.878 370.725 324.243C371.638 327.529 371.821 330.997 371.09 334.283C370.908 335.378 372.733 336.109 374.376 335.561C374.559 335.561 374.741 335.378 374.924 335.378C375.289 335.196 375.654 334.831 375.654 334.466C376.384 330.815 376.384 327.164 375.289 323.513C375.107 322.782 373.829 322.417 372.551 322.6C372.186 322.6 371.821 322.782 371.455 322.965Z" fill="white"/>
<path opacity="0.5" d="M363.605 303.067C362.692 303.615 362.51 304.527 363.422 305.075C374.741 312.012 379.852 321.322 379.487 330.815C379.487 331.91 381.678 332.458 383.138 331.728C383.138 331.728 383.138 331.728 383.321 331.728C383.868 331.363 384.051 330.998 384.051 330.633C384.599 320.592 378.939 310.552 366.891 303.067C365.978 302.519 364.518 302.519 363.605 303.067Z" fill="white"/>
<path opacity="0.5" d="M338.413 303.614C330.015 308.361 329.103 316.028 336.405 320.592C337.865 321.505 339.326 322.6 340.421 323.695C340.969 324.243 342.429 324.426 343.524 324.06C343.707 324.06 343.89 323.878 343.89 323.878C344.62 323.513 344.985 322.783 344.437 322.235C343.159 320.957 341.699 319.679 339.873 318.584C334.214 315.115 334.944 309.274 341.516 305.623C344.437 303.98 348.088 302.884 351.922 302.702C352.47 302.702 353.017 302.519 353.565 302.337C354.113 301.971 354.295 301.606 354.295 301.241C354.295 300.511 353.2 299.963 352.104 299.963C346.993 300.146 342.247 301.424 338.413 303.614Z" fill="white"/>
<path opacity="0.5" d="M344.618 330.997C344.071 331.363 343.888 331.728 343.888 332.093C343.888 334.101 343.158 336.109 342.063 338.117C341.515 338.847 342.428 339.76 343.706 339.76C344.436 339.76 345.166 339.577 345.714 339.395C346.079 339.212 346.261 339.03 346.444 338.847C347.722 336.657 348.452 334.283 348.452 331.91C348.452 331.18 347.357 330.632 346.079 330.632C345.714 330.632 345.166 330.815 344.618 330.997Z" fill="white"/>
<path opacity="0.5" d="M381.494 310.187C380.764 310.552 380.581 311.282 380.946 311.83C384.232 316.211 386.24 320.775 386.788 325.521C386.97 326.616 389.161 326.981 390.622 326.251C390.804 326.251 390.804 326.069 390.987 326.069C391.352 325.704 391.534 325.338 391.534 324.973C390.804 319.862 388.796 314.933 385.145 310.369C384.597 309.639 382.954 309.456 381.676 310.004C381.494 310.187 381.494 310.187 381.494 310.187Z" fill="white"/>
<path opacity="0.5" d="M333.302 300.512C327.461 303.798 323.992 308.361 323.627 312.925C323.627 313.655 324.54 314.203 325.818 314.203C326.365 314.203 326.913 314.021 327.461 313.838C328.008 313.655 328.191 313.29 328.191 312.743C328.373 308.909 331.294 305.258 336.223 302.337C345.898 296.861 360.685 296.495 368.9 301.789C371.273 303.25 373.647 304.893 375.655 306.718C376.385 307.266 377.845 307.449 378.941 306.901L379.306 306.718C380.219 306.171 380.401 305.441 379.671 304.893C377.48 303.067 375.107 301.242 372.551 299.599C362.693 293.575 344.986 293.757 333.302 300.512Z" fill="white"/>
<path opacity="0.5" d="M325.818 316.941C325.087 317.306 324.905 318.036 325.087 318.584C326.183 320.592 328.008 322.417 330.564 323.878C336.223 327.529 337.683 332.64 334.763 337.387C334.398 338.117 334.945 338.847 336.041 339.03C336.953 339.212 337.866 339.03 338.414 338.665C338.779 338.482 338.961 338.3 339.144 338.117C342.612 332.458 340.969 326.251 334.032 321.87C332.024 320.592 330.381 319.131 329.469 317.306C329.103 316.576 327.461 316.211 326.183 316.758C326 316.758 325.818 316.758 325.818 316.941Z" fill="white"/>
<path opacity="0.5" d="M356.303 291.201C355.938 291.384 355.573 291.749 355.573 292.114C355.39 292.844 356.12 293.574 357.398 293.574C364.335 293.939 370.36 295.582 375.106 298.503C383.138 303.432 388.98 309.456 392.083 316.211C392.448 316.941 393.726 317.306 395.004 316.941C395.369 316.941 395.734 316.758 395.917 316.576C396.647 316.211 396.83 315.663 396.647 315.115C393.361 307.996 387.154 301.607 378.757 296.312C373.463 293.026 366.343 291.018 358.494 290.653C357.398 290.653 356.851 290.836 356.303 291.201Z" fill="white"/>
<path opacity="0.5" d="M328.373 297.408C313.586 305.988 311.943 319.314 324.722 327.347C328.373 329.537 329.286 333.006 327.825 335.927C327.46 336.474 327.825 337.204 328.738 337.387C329.651 337.57 330.746 337.57 331.476 337.022C331.842 336.839 332.024 336.657 332.207 336.292C334.215 332.275 333.119 328.077 328.191 325.156C317.055 318.219 318.515 306.535 331.294 299.233C335.493 296.86 340.422 295.035 345.898 294.122C346.263 294.122 346.628 293.939 346.994 293.757C347.541 293.392 347.906 292.844 347.724 292.479C347.541 291.749 346.263 291.383 344.985 291.566C338.779 292.661 333.119 294.669 328.373 297.408Z" fill="white"/>
<path opacity="0.5" d="M385.327 295.948C384.415 296.495 384.232 297.226 384.962 297.773C388.978 300.694 392.447 303.98 395.003 307.449C395.733 308.361 397.741 308.361 398.836 307.631C399.384 307.449 399.567 307.084 399.567 306.536C396.646 302.702 392.995 299.234 388.613 295.765C388.066 295.4 386.605 295.4 385.327 295.948C385.51 295.948 385.327 295.948 385.327 295.948Z" fill="white"/>
<path opacity="0.5" d="M328.191 291.749C327.278 292.296 327.095 293.027 327.826 293.574C328.556 294.122 330.016 294.304 331.112 293.757C345.716 287.367 364.701 287.185 377.48 293.209C378.393 293.574 379.671 293.574 380.584 293.027L380.766 292.844C381.679 292.296 381.496 291.384 380.584 290.836C366.162 284.081 344.803 284.264 328.556 291.384C328.373 291.566 328.373 291.566 328.191 291.749Z" fill="white"/>
<path opacity="0.5" d="M317.784 297.956C317.601 297.956 317.601 298.139 317.419 298.139C307.013 306.719 305.37 317.672 313.22 326.069C313.768 326.617 315.228 326.799 316.324 326.434C316.506 326.434 316.689 326.252 316.689 326.252C317.419 325.887 317.784 325.157 317.236 324.609C310.117 317.124 311.577 307.266 320.887 299.599C321.618 298.869 321.435 298.139 320.522 297.773C319.792 297.408 318.514 297.408 317.784 297.956Z" fill="white"/>
<path opacity="0.5" d="M319.976 329.172C319.063 329.72 318.881 330.45 319.611 330.997C320.524 331.728 320.889 332.64 320.706 333.553C320.706 333.918 321.071 334.283 321.436 334.648C322.349 335.014 323.627 335.014 324.54 334.466C324.905 334.283 325.27 333.918 325.27 333.553C325.452 332.093 324.722 330.815 323.444 329.537C322.897 328.989 321.619 328.807 320.524 328.989C320.341 328.989 320.158 329.172 319.976 329.172Z" fill="white"/>
</g>
</g>
</g>
<path opacity="0.5" d="M176.67 242.095C205.203 242.095 228.333 226.893 228.333 208.14C228.333 189.387 205.203 174.185 176.67 174.185C148.138 174.185 125.008 189.387 125.008 208.14C125.008 226.893 148.138 242.095 176.67 242.095Z" fill="#050505"/>
<path d="M173.932 232.785C202.465 232.785 225.595 217.583 225.595 198.83C225.595 180.077 202.465 164.875 173.932 164.875C145.4 164.875 122.27 180.077 122.27 198.83C122.27 217.583 145.4 232.785 173.932 232.785Z" fill="#BAE0FF"/>
<g opacity="0.5">
<g opacity="0.5">
<g opacity="0.5">
<path opacity="0.5" d="M182.512 181.852C182.147 182.035 181.965 182.035 181.782 182.217C181.599 182.4 181.417 182.582 181.234 182.765C181.052 182.948 180.869 183.13 180.869 183.313C180.687 183.495 180.687 183.678 180.687 183.86L176.123 203.576L159.328 201.385C158.78 201.385 158.415 201.385 157.867 201.385C157.32 201.385 156.955 201.386 156.59 201.568C156.224 201.568 155.677 201.751 155.312 201.933C154.947 202.116 154.581 202.116 154.216 202.298C154.034 202.481 153.669 202.481 153.486 202.663C153.304 202.846 153.121 203.028 152.939 203.028C152.756 203.211 152.573 203.394 152.391 203.576C152.208 203.759 152.208 203.941 152.026 204.124C151.843 204.671 151.661 205.037 151.843 205.584C151.843 205.949 152.208 206.497 152.391 206.862C152.756 207.227 153.304 207.592 153.851 207.775C154.399 207.957 155.129 208.323 155.859 208.323L179.591 211.426C179.956 211.426 180.504 211.426 180.869 211.426C181.234 211.426 181.782 211.426 182.147 211.426C182.512 211.426 183.06 211.243 183.425 211.243C183.79 211.061 184.155 211.061 184.52 210.878C184.52 210.878 184.52 210.878 184.703 210.878C184.703 210.878 184.703 210.878 184.885 210.878C185.068 210.878 184.885 210.878 185.068 210.878C185.433 210.696 185.616 210.513 185.981 210.331C186.163 210.148 186.528 209.966 186.711 209.783C186.893 209.6 187.076 209.418 187.259 209.053C187.441 208.87 187.441 208.688 187.441 208.323L192.188 184.591C192.188 184.225 192.188 183.678 192.005 183.313C191.822 182.948 191.457 182.582 191.092 182.217C190.727 181.852 190.179 181.67 189.449 181.487C188.902 181.305 188.171 181.122 187.441 181.122C187.076 181.122 186.711 181.122 186.346 181.122C185.981 181.122 185.616 181.122 185.25 181.305C184.885 181.305 184.52 181.487 184.338 181.487C183.06 181.67 182.695 181.67 182.512 181.852Z" fill="#050505"/>
</g>
</g>
</g>
<path d="M180.323 179.661C179.958 179.844 179.775 179.844 179.593 180.026C179.41 180.209 179.227 180.392 179.045 180.574C178.862 180.757 178.68 180.939 178.68 181.122C178.497 181.304 178.497 181.487 178.497 181.669L173.933 201.385L157.138 199.195C156.591 199.195 156.226 199.195 155.678 199.195C155.313 199.195 154.765 199.195 154.4 199.377C154.035 199.377 153.487 199.56 153.122 199.742C152.757 199.925 152.392 199.925 152.027 200.107C151.844 200.29 151.479 200.29 151.297 200.472C151.114 200.655 150.932 200.838 150.749 200.838C150.567 201.02 150.384 201.203 150.201 201.385C150.019 201.568 150.019 201.75 149.836 201.933C149.654 202.481 149.471 202.846 149.654 203.393C149.654 203.758 150.019 204.306 150.201 204.671C150.567 205.036 151.114 205.401 151.662 205.584C152.209 205.766 152.94 206.132 153.67 206.132L177.402 209.235C177.767 209.235 178.315 209.235 178.68 209.235C179.045 209.235 179.593 209.235 179.958 209.235C180.323 209.235 180.87 209.052 181.236 209.052C181.601 208.87 181.966 208.87 182.331 208.687C182.331 208.687 182.331 208.687 182.513 208.687C182.513 208.687 182.513 208.687 182.696 208.687C182.696 208.687 182.696 208.687 182.878 208.687C183.244 208.505 183.426 208.322 183.791 208.14C183.974 207.957 184.339 207.775 184.521 207.592C184.704 207.409 184.887 207.227 185.069 206.862C185.252 206.679 185.252 206.497 185.252 206.132L189.998 182.4C189.998 182.035 189.998 181.487 189.816 181.122C189.633 180.757 189.268 180.392 188.903 180.026C188.538 179.661 187.99 179.479 187.26 179.296C186.712 179.114 185.982 178.931 185.252 178.931C184.887 178.931 184.521 178.931 184.156 178.931C183.791 178.931 183.426 178.931 183.061 179.114C182.696 179.114 182.331 179.296 182.148 179.296C180.87 179.296 180.505 179.479 180.323 179.661Z" fill="white"/>
<path d="M203.139 261.993L294.598 209.601L317.6 223.11L225.958 275.137L203.139 261.993Z" fill="#0080DE"/>
<path d="M239.834 293.757L340.421 235.705L363.605 249.214L261.375 307.449L239.834 293.757Z" fill="#0080DE"/>
<path opacity="0.5" d="M199.856 148.992C199.856 153.556 192.737 157.207 184.157 157.207C175.394 157.207 168.457 153.556 168.457 148.992C168.457 144.428 175.577 140.777 184.157 140.777C192.737 140.595 199.856 144.428 199.856 148.992Z" fill="#050505"/>
<path d="M197.481 60.8192C198.759 58.2635 199.854 55.3426 200.584 52.0567C201.315 48.7707 201.68 45.1196 201.68 41.286C201.68 36.1745 200.95 31.2456 199.854 26.6817C198.576 21.9353 196.933 17.7366 194.743 13.903C192.552 10.0694 189.996 6.96595 187.258 4.59275C184.52 2.21956 181.416 0.759126 178.313 0.211466C175.21 -0.336195 172.289 0.211474 169.733 1.48935C167.177 2.76722 164.987 4.95787 162.978 7.69617C161.153 10.4345 159.692 13.903 158.597 17.7366C157.684 21.5702 157.137 25.9515 157.137 30.5154C157.137 33.9839 157.502 37.6349 158.232 40.9209C158.962 44.2069 159.875 47.4928 160.97 50.5962C162.248 53.6996 163.526 56.4379 165.169 58.9937C166.812 61.5494 168.638 63.7401 170.646 65.5656V72.1375L171.193 131.467C171.193 133.293 171.558 135.301 171.924 137.127C172.471 138.952 173.019 140.778 173.932 142.238C174.662 143.881 175.757 145.341 176.853 146.437C177.948 147.715 179.226 148.627 180.321 149.175L186.528 152.096V140.23L194.56 143.699C194.925 143.881 195.29 143.881 195.656 144.064C196.021 144.064 196.386 144.064 196.568 144.064C196.933 144.064 197.116 143.881 197.481 143.699C197.664 143.516 198.029 143.333 198.211 143.151C198.394 142.968 198.576 142.603 198.759 142.238C198.941 141.873 199.124 141.508 199.307 141.143C199.489 140.778 199.489 140.413 199.672 139.865C199.672 139.317 199.854 138.952 199.854 138.404C199.854 137.309 199.672 136.396 199.489 135.301C199.307 134.206 198.941 133.293 198.394 132.38C197.846 131.467 197.298 130.737 196.751 130.007C196.203 129.459 195.473 128.912 194.743 128.547L189.084 126.173L186.71 125.261V121.427L189.084 122.34L194.743 124.713C195.108 124.895 195.473 124.895 195.838 124.895C196.203 124.895 196.568 124.895 196.751 124.895C197.116 124.895 197.298 124.713 197.664 124.53C198.029 124.348 198.211 124.165 198.394 123.983C198.576 123.8 198.759 123.435 198.941 123.07C199.124 122.705 199.307 122.34 199.489 121.975C199.672 121.61 199.672 121.062 199.854 120.697C199.854 120.149 200.037 119.784 200.037 119.236C200.037 118.141 199.854 117.046 199.672 116.133C199.489 115.038 198.941 114.125 198.576 113.212C198.029 112.299 197.481 111.569 196.933 111.021C196.386 110.474 195.656 109.926 194.925 109.744L189.266 107.553L186.893 106.64V77.0665V70.312C189.084 69.7643 190.909 68.669 192.735 67.026C194.56 65.3831 196.203 63.375 197.481 60.8192ZM173.201 12.9902C173.567 11.7123 173.932 10.7996 174.662 9.8868C175.21 8.97404 175.94 8.42638 176.67 8.06127C177.4 7.69616 178.313 7.51362 179.226 7.69617C180.138 7.87872 181.051 8.42638 181.781 8.97404C182.512 9.70425 183.424 10.617 183.972 11.7123C184.52 12.8077 185.067 14.0855 185.433 15.3634C185.798 16.6413 185.98 18.2843 185.98 19.7447C185.98 21.2051 185.798 22.6655 185.433 23.7609C185.067 25.0387 184.52 25.9515 183.972 26.8643C183.424 27.7771 182.694 28.3247 181.781 28.6898C181.051 29.0549 180.138 29.0549 179.226 28.8724C178.313 28.6898 177.4 28.1422 176.67 27.4119C175.94 26.6817 175.21 25.769 174.479 24.6736C173.932 23.5783 173.384 22.3004 173.019 21.0226C172.654 19.7447 172.471 18.2843 172.471 16.8238C172.654 15.546 172.836 14.0855 173.201 12.9902Z" fill="#EAA306"/>
<path d="M169.002 66.1133L169.732 131.833C169.732 133.658 170.097 135.666 170.462 137.492C171.01 139.317 171.558 141.143 172.47 142.603C173.201 144.246 174.296 145.707 175.391 146.802C176.487 148.08 177.765 148.993 178.86 149.54L185.067 152.461V140.595L183.789 140.047C183.059 139.682 182.511 139.317 181.963 138.587C181.416 138.039 180.868 137.127 180.503 136.396C180.138 135.484 179.773 134.571 179.408 133.658C179.225 132.745 179.042 131.65 179.042 130.737C179.042 130.19 179.042 129.824 179.042 129.277C179.042 128.912 179.225 128.364 179.225 127.999C179.407 127.634 179.408 127.269 179.59 126.904C179.773 126.538 179.955 126.356 180.138 125.991C180.32 125.808 180.685 125.626 180.868 125.443C181.05 125.261 181.416 125.261 181.781 125.078C182.146 125.078 182.328 125.078 182.693 125.078C183.059 125.078 183.424 125.261 183.606 125.261L184.884 125.808V121.975L183.606 121.427C182.876 121.062 182.328 120.697 181.781 120.149C181.233 119.601 180.685 118.871 180.138 117.958C179.773 117.046 179.408 116.133 179.042 115.22C178.86 114.307 178.677 113.212 178.677 112.117C178.677 111.569 178.677 111.204 178.677 110.656C178.677 110.291 178.86 109.744 179.042 109.378C179.225 109.013 179.225 108.648 179.408 108.283C179.59 107.918 179.773 107.735 179.955 107.37C180.138 107.188 180.503 106.823 180.685 106.823C180.868 106.64 181.233 106.458 181.598 106.458C181.963 106.458 182.146 106.275 182.511 106.458C182.876 106.458 183.241 106.64 183.424 106.64L184.702 107.188V77.6141C184.154 77.7967 183.424 77.9793 182.876 77.9793C182.146 77.9793 181.598 78.1618 180.868 77.9793C180.138 77.9793 179.59 77.7967 178.86 77.7967C178.13 77.6141 177.582 77.4316 176.852 77.249C176.122 77.0665 175.391 76.7014 174.844 76.5188C174.113 76.1537 173.566 75.7886 172.836 75.4235C172.105 75.0584 171.558 74.5107 171.01 74.1456C170.462 73.598 169.732 73.2329 169.185 72.5027L169.002 66.1133Z" fill="#FFCA00"/>
<path d="M192.916 129.459L187.257 127.086V141.873L184.884 140.777V126.173L183.606 125.625C183.241 125.443 182.876 125.443 182.693 125.443C182.328 125.443 182.145 125.443 181.78 125.443C181.415 125.443 181.233 125.625 180.868 125.808C180.685 125.991 180.32 126.173 180.137 126.356C179.955 126.538 179.772 126.903 179.59 127.268C179.407 127.634 179.225 127.999 179.225 128.364C179.042 128.729 179.042 129.094 179.042 129.642C179.042 130.007 178.86 130.554 179.042 131.102C179.042 132.015 179.225 133.11 179.407 134.023C179.59 134.936 179.955 135.848 180.503 136.761C180.868 137.674 181.415 138.404 181.963 138.952C182.511 139.499 183.241 140.047 183.788 140.412L185.066 140.96L193.099 144.428C193.464 144.611 193.829 144.611 194.194 144.794C194.559 144.794 194.924 144.794 195.107 144.794C195.472 144.794 195.654 144.611 196.02 144.428C196.202 144.246 196.567 144.063 196.75 143.881C196.932 143.698 197.115 143.333 197.297 142.968C197.48 142.603 197.663 142.238 197.845 141.873C198.028 141.508 198.028 141.142 198.21 140.595C198.21 140.047 198.393 139.682 198.393 139.134C198.393 138.039 198.21 137.126 198.028 136.031C197.845 134.936 197.48 134.023 196.932 133.11C196.385 132.197 195.837 131.467 195.289 130.737C194.377 130.189 193.646 129.642 192.916 129.459Z" fill="#FFCA00"/>
<path d="M193.099 110.473L187.44 108.283V123.252L185.066 122.339V107.37L183.788 106.822C183.423 106.64 183.058 106.64 182.876 106.64C182.511 106.64 182.328 106.64 181.963 106.64C181.598 106.64 181.415 106.822 181.05 107.005C180.868 107.187 180.503 107.37 180.32 107.552C180.137 107.735 179.955 108.1 179.772 108.465C179.59 108.83 179.407 109.195 179.407 109.561C179.225 109.926 179.225 110.291 179.042 110.838C179.042 111.203 178.86 111.751 179.042 112.299C179.042 113.394 179.225 114.307 179.407 115.402C179.59 116.315 179.955 117.228 180.503 118.141C180.868 119.053 181.415 119.783 182.145 120.331C182.693 120.879 183.423 121.426 183.971 121.609L185.249 122.157L193.281 125.443C193.646 125.625 194.011 125.625 194.377 125.625C194.742 125.625 195.107 125.625 195.289 125.625C195.654 125.625 195.837 125.443 196.202 125.26C196.567 125.078 196.75 124.895 196.932 124.712C197.115 124.53 197.297 124.165 197.48 123.8C197.663 123.435 197.845 123.069 198.028 122.704C198.21 122.339 198.21 121.792 198.393 121.426C198.393 120.879 198.575 120.514 198.575 119.966C198.575 118.871 198.393 117.775 198.21 116.863C198.028 115.767 197.48 114.855 197.115 113.942C196.567 113.029 196.02 112.299 195.472 111.751C194.377 111.203 193.646 110.656 193.099 110.473Z" fill="#FFCA00"/>
<path d="M169.002 66.1133V72.6852C169.55 73.2329 170.28 73.7805 170.827 74.3282C171.375 74.8758 172.105 75.2409 172.653 75.6061C173.383 75.9712 173.931 76.3363 174.661 76.7014C175.391 77.0665 175.939 77.249 176.669 77.4316C177.399 77.6141 178.13 77.7967 178.677 77.9793C179.408 78.1618 179.955 78.1618 180.685 78.1618C181.416 78.1618 181.963 78.1618 182.693 78.1618C183.424 78.1618 183.971 77.9792 184.519 77.7967V71.0422C183.971 71.2248 183.241 71.4073 182.511 71.4073C181.781 71.4073 181.233 71.5899 180.503 71.5899C179.773 71.5899 179.225 71.5899 178.495 71.4073C177.765 71.2248 177.217 71.0422 176.487 70.8597C175.756 70.6771 175.026 70.312 174.479 70.1295C173.748 69.7643 173.201 69.3992 172.47 69.0341C171.74 68.669 171.193 68.1214 170.462 67.7563C170.28 67.2086 169.55 66.6609 169.002 66.1133Z" fill="#FFB500"/>
<path d="M177.218 29.7844C176.305 29.6019 175.392 29.0542 174.662 28.324C173.932 27.5938 173.202 26.681 172.471 25.5857C171.924 24.4904 171.376 23.2125 171.011 21.9346C170.646 20.6567 170.463 19.1963 170.463 17.7359C170.463 16.2755 170.646 14.9976 171.011 13.7197C171.376 12.4418 171.741 11.5291 172.471 10.6163C173.019 9.70353 173.749 9.15587 174.48 8.79076C175.21 8.42566 176.123 8.24309 177.035 8.42565C177.948 8.6082 178.861 9.15587 179.591 9.70353C180.321 10.4337 181.234 11.3465 181.782 12.4418C182.329 13.5372 182.877 14.815 183.242 16.0929C183.607 17.3708 183.79 19.0138 183.79 20.4742C183.79 21.9346 183.607 23.395 183.242 24.4904C182.877 25.7682 182.329 26.681 181.782 27.5938C181.234 28.5065 180.504 29.0542 179.591 29.4193C179.043 29.7844 178.131 29.967 177.218 29.7844ZM176.305 0.940958C173.202 0.393297 170.281 0.940966 167.725 2.21884C165.169 3.49671 162.979 5.68735 160.971 8.42565C159.145 11.1639 157.685 14.6325 156.589 18.4661C155.677 22.2997 155.129 26.681 155.129 31.2448C155.129 34.7133 155.494 38.3644 156.224 41.6504C156.954 44.9364 157.867 48.2223 158.963 51.3257C160.24 54.4291 161.518 57.1674 163.161 59.7232C164.804 62.2789 166.63 64.4696 168.638 66.2951C169.186 66.8428 169.916 67.3904 170.463 67.7555C171.011 68.3032 171.741 68.6683 172.471 69.0334C173.202 69.3985 173.749 69.7636 174.48 70.1287C175.21 70.4938 175.757 70.6764 176.488 70.8589C177.218 71.0415 177.948 71.224 178.496 71.4066C179.226 71.5891 179.774 71.5892 180.504 71.5892C181.234 71.5892 181.782 71.5891 182.512 71.4066C183.242 71.4066 183.79 71.2241 184.52 71.0415C186.711 70.4938 188.536 69.3985 190.362 67.7555C192.187 66.1125 193.83 64.1045 195.108 61.5487C196.386 58.993 197.481 56.0721 198.212 52.7861C198.942 49.5002 199.307 45.8491 199.307 42.0155C199.307 36.904 198.577 31.975 197.481 27.4112C196.203 22.6648 194.56 18.4661 192.37 14.6325C190.179 10.7988 187.623 7.69544 184.885 5.32224C182.512 3.1316 179.409 1.48862 176.305 0.940958Z" fill="#FFCA00"/>
<path d="M187.26 108.282L184.887 107.37V122.156L187.26 123.252V108.282Z" fill="#FFB500"/>
<path d="M187.26 127.086L184.887 125.99V140.777L187.26 141.69V127.086Z" fill="#FFB500"/>
<path d="M187.076 151.913L185.068 152.644V147.167L187.076 151.913Z" fill="#EAA306"/>
<path opacity="0.5" d="M393.361 307.814L342.246 317.307L358.676 287.916L393.361 307.814Z" fill="#050505"/>
<path d="M449.589 292.663L339.509 313.109L376.019 248.12L403.403 264.732L403.768 282.075L418.92 274.225L449.589 292.663Z" fill="white"/>
<path d="M403.402 264.732L339.508 313.109L403.767 282.075L403.402 264.732Z" fill="#78B8FF"/>
<path opacity="0.15" d="M252.246 260.898V328.99C252.246 333.554 251.881 338.118 251.333 342.134C250.603 346.881 249.507 351.262 248.229 355.278L105.838 273.129C105.473 269.478 105.473 265.827 105.473 262.176V194.083C105.473 194.083 105.655 194.083 105.838 194.083L121.537 185.503C121.537 185.503 147.095 179.479 186.892 202.481C226.871 225.483 252.246 260.898 252.246 260.898Z" fill="#111111"/>
<path opacity="0.6" d="M212.816 420.815C211.538 433.411 186.163 441.078 156.224 437.975C126.285 434.871 102.919 422.275 104.196 409.679C105.474 397.083 130.849 389.415 160.788 392.519C190.727 395.622 214.094 408.218 212.816 420.815Z" fill="#DAE1E5"/>
<path d="M160.422 221.466C120.443 198.282 94.885 204.306 94.885 204.306L78.8203 213.069C90.1386 214.164 123.181 217.998 144.174 230.046C184.154 253.048 209.529 288.646 209.529 288.646V356.738C209.529 386.677 187.987 410.774 176.121 420.267C197.663 412.6 225.776 390.876 225.776 347.976V279.883C225.776 279.883 200.218 244.468 160.422 221.466Z" fill="#77B7FF"/>
<path d="M209.71 356.556V288.463C209.71 288.463 184.335 253.048 144.356 229.864C123.362 217.815 106.385 213.616 95.0667 212.521C84.6611 211.426 79.002 212.886 79.002 212.886V280.979C79.002 358.746 144.356 424.648 144.356 424.648C144.356 424.648 169.183 428.299 188.169 412.965C200.035 403.472 209.71 386.495 209.71 356.556Z" fill="#BAE0F6"/>
<path d="M92.6959 230.411C92.6959 230.411 71.5197 351.262 144.176 407.123C144.176 407.123 214.824 426.108 195.656 289.924C195.656 289.741 152.756 224.204 92.6959 230.411Z" fill="#008FF9"/>
<path d="M144.174 414.242L142.897 412.964C137.42 406.94 126.832 394.161 116.426 377.184C96.8931 345.785 87.0352 315.116 87.0352 285.907V223.291H88.4956C92.1467 223.109 95.9803 223.291 100.179 223.839C109.672 225.117 125.006 228.95 143.992 239.721C163.343 250.857 178.86 265.096 188.535 275.136C192.369 279.152 196.202 283.351 199.488 287.367L200.949 289.193V351.809C200.949 381.2 190.908 400.551 171.01 409.313C160.787 413.877 150.381 414.242 145.087 414.242H144.174ZM92.6943 230.411V289.193C92.6943 316.393 102.005 345.054 120.26 374.445C129.388 389.232 138.88 400.733 144.174 407.122C149.468 407.122 158.596 406.575 167.724 402.559C186.344 394.344 195.654 376.088 195.654 348.705V289.923C192.916 286.637 189.813 283.351 186.709 280.065C177.399 270.572 162.612 256.881 144.174 246.293C126.102 235.887 111.497 232.236 102.37 230.958C99.0837 230.593 95.7977 230.411 92.6943 230.411Z" fill="white"/>
<g opacity="0.5">
<g opacity="0.5">
<g opacity="0.5">
<path opacity="0.5" d="M177.586 295.218C177.038 295.035 176.673 295.035 176.125 295.035C175.76 295.035 175.213 295.035 174.847 295.035C174.482 295.218 173.935 295.218 173.57 295.583C173.204 295.765 172.839 296.13 172.474 296.496L144.178 327.347L133.773 307.996C133.408 307.449 133.043 306.901 132.86 306.353C132.495 305.806 132.13 305.441 131.765 305.076C131.4 304.71 130.852 304.345 130.487 304.163C130.122 303.98 129.574 303.615 129.209 303.615C128.844 303.433 128.661 303.433 128.296 303.433C127.931 303.433 127.749 303.433 127.383 303.433C127.018 303.433 126.836 303.433 126.471 303.615C126.106 303.798 125.923 303.798 125.741 303.98C125.193 304.345 124.645 304.893 124.28 305.623C123.915 306.353 123.732 307.084 123.732 307.996C123.732 308.909 123.732 309.822 123.915 310.917C124.098 311.83 124.463 312.925 125.01 313.838L139.797 341.586C140.162 342.134 140.345 342.682 140.71 343.047C141.075 343.594 141.44 343.96 141.805 344.325C142.17 344.69 142.535 345.055 143.083 345.42C143.448 345.785 143.996 345.968 144.361 346.15C144.726 346.333 145.274 346.515 145.639 346.515C146.004 346.515 146.369 346.515 146.917 346.515C147.282 346.515 147.647 346.333 148.012 346.15C148.377 345.968 148.742 345.785 148.925 345.42L182.515 310.37C183.062 309.822 183.61 308.909 183.793 307.996C183.975 307.084 184.158 306.171 184.158 305.076C184.158 303.98 183.793 303.068 183.427 301.972C183.062 300.877 182.515 299.964 181.784 298.869C181.419 298.504 181.054 298.139 180.872 297.773C180.507 297.408 180.141 297.043 179.776 296.861C179.411 296.496 179.046 296.313 178.681 296.13C178.316 295.4 177.951 295.4 177.586 295.218Z" fill="#050505"/>
</g>
</g>
</g>
<path d="M174.299 295.583C173.751 295.4 173.386 295.4 172.838 295.4C172.473 295.4 171.925 295.4 171.56 295.4C171.195 295.583 170.648 295.583 170.282 295.948C169.917 296.131 169.552 296.496 169.187 296.861L140.891 327.712L130.486 308.362C130.121 307.814 129.756 307.266 129.573 306.719C129.208 306.171 128.843 305.806 128.478 305.441C128.113 305.076 127.565 304.711 127.2 304.528C126.835 304.346 126.287 303.98 125.922 303.98C125.557 303.798 125.374 303.798 125.009 303.798C124.644 303.798 124.461 303.798 124.096 303.798C123.731 303.798 123.549 303.798 123.184 303.98C122.819 304.163 122.636 304.163 122.453 304.346C121.906 304.711 121.358 305.258 120.993 305.988C120.628 306.719 120.445 307.449 120.445 308.362C120.445 309.274 120.445 310.187 120.628 311.283C120.81 312.195 121.176 313.291 121.723 314.203L136.51 341.952C136.875 342.499 137.058 343.047 137.423 343.412C137.788 343.96 138.153 344.325 138.518 344.69C138.883 345.055 139.248 345.42 139.796 345.785C140.161 346.15 140.709 346.333 141.074 346.515C141.439 346.698 141.987 346.88 142.352 346.88C142.717 346.88 143.082 346.88 143.63 346.88C143.995 346.88 144.36 346.698 144.725 346.515C145.09 346.333 145.455 346.15 145.638 345.785L179.228 310.735C179.775 310.187 180.323 309.274 180.505 308.362C180.688 307.449 180.871 306.536 180.871 305.441C180.871 304.346 180.505 303.433 180.14 302.337C179.775 301.242 179.228 300.329 178.497 299.234C178.132 298.869 177.767 298.504 177.585 298.139C177.219 297.774 176.854 297.408 176.489 297.226C176.124 296.861 175.759 296.678 175.394 296.496C175.029 295.948 174.664 295.766 174.299 295.583Z" fill="white"/>
</svg>
