<svg width="780" height="688" viewBox="0 0 780 688" fill="none" xmlns="http://www.w3.org/2000/svg">
<path d="M694.426 466.099C670.54 524.422 674.44 563.058 637.921 610.456C582.595 682.262 460.5 698 380.827 682.414C301.154 666.828 304.889 688.203 224.332 684.003C144.045 680.273 55.0252 636.454 18.8063 567.121C-17.4126 497.787 -1.29959 403.209 67.0013 361.208C134.562 319.008 254.78 329.114 323.264 270.081C391.549 211.789 409.31 84.2858 464.791 30.8901C519.803 -22.2345 613.276 -1.05236 679.968 50.6611C746.192 102.646 785.832 184.42 779.3 260.92C772.028 337.22 718.313 407.776 694.426 466.099Z" fill="#F7F7FC"/>
</svg>
