<svg width="142" height="24" viewBox="0 0 142 24" fill="none" xmlns="http://www.w3.org/2000/svg">
<path d="M11.0344 17.1556V12.3259C11.0344 11.9506 10.9749 11.7037 10.8559 11.5852C10.7568 11.4667 10.5089 11.4074 10.1124 11.4074H2.34964C0.783213 11.4074 0 10.6272 0 9.06667V3.73333C0 2.17284 0.783213 1.39259 2.34964 1.39259H14.3358C15.9022 1.39259 16.6854 2.17284 16.6854 3.73333V7.17037H10.9452V4.05926C10.9452 3.6642 10.8857 3.41728 10.7667 3.31852C10.6477 3.2 10.3999 3.14074 10.0231 3.14074H6.66227C6.2657 3.14074 6.00794 3.2 5.88897 3.31852C5.78983 3.41728 5.74026 3.6642 5.74026 4.05926V8.74074C5.74026 9.1358 5.78983 9.39259 5.88897 9.51111C6.00794 9.60988 6.2657 9.65926 6.66227 9.65926H14.425C15.9914 9.65926 16.7746 10.4395 16.7746 12V17.4815C16.7746 19.042 15.9914 19.8222 14.425 19.8222H2.43887C0.87244 19.8222 0.0892268 19.042 0.0892268 17.4815V14.0444H5.82948V17.1556C5.82948 17.5506 5.88897 17.8074 6.00794 17.9259C6.12691 18.0247 6.37476 18.0741 6.75149 18.0741H10.1124C10.5089 18.0741 10.7568 18.0247 10.8559 17.9259C10.9749 17.8074 11.0344 17.5506 11.0344 17.1556Z" fill="#211F1F"/>
<path d="M30.8051 17.1556V8.11852C30.8051 7.74321 30.7456 7.4963 30.6266 7.37778C30.5077 7.25926 30.2598 7.2 29.8831 7.2H26.6709C26.2942 7.2 26.0463 7.25926 25.9273 7.37778C25.8084 7.4963 25.7489 7.74321 25.7489 8.11852V17.1556C25.7489 17.5506 25.8084 17.8074 25.9273 17.9259C26.0463 18.0247 26.2942 18.0741 26.6709 18.0741H29.8831C30.2598 18.0741 30.5077 18.0247 30.6266 17.9259C30.7456 17.8074 30.8051 17.5506 30.8051 17.1556ZM22.6557 5.45185H33.8983C35.4647 5.45185 36.2479 6.2321 36.2479 7.79259V17.4815C36.2479 19.042 35.4647 19.8222 33.8983 19.8222H22.6557C21.0893 19.8222 20.3061 19.042 20.3061 17.4815V7.79259C20.3061 6.2321 21.0893 5.45185 22.6557 5.45185Z" fill="#211F1F"/>
<path d="M50.1436 1.77778H47.437C47.0603 1.77778 46.8125 1.83704 46.6935 1.95555C46.5745 2.05432 46.515 2.30123 46.515 2.6963V5.45185H50.1436V7.2H46.515V19.8222H41.0425V7.2H38.901V5.45185H41.0425V2.34074C41.0425 0.780247 41.8257 0 43.3921 0H50.1436V1.77778Z" fill="#211F1F"/>
<path d="M61.6564 7.2H58.6822V17.0963C58.6822 17.4914 58.7417 17.7481 58.8606 17.8667C58.9796 17.9654 59.2275 18.0148 59.6042 18.0148H61.6267V19.8222H55.5592C53.9928 19.8222 53.2096 19.042 53.2096 17.4815V7.2H50.8897V5.45185H53.2096V2.16296H58.6822V5.45185H61.6564V7.2Z" fill="#211F1F"/>
<path d="M69.753 11.5852H75.1364V8.11852C75.1364 7.74321 75.0769 7.4963 74.9579 7.37778C74.839 7.25926 74.5911 7.2 74.2144 7.2H70.675C70.2785 7.2 70.0207 7.25926 69.9017 7.37778C69.8026 7.4963 69.753 7.74321 69.753 8.11852V11.5852ZM66.6301 5.45185H78.0809C79.6473 5.45185 80.4305 6.2321 80.4305 7.79259V13.3333H69.753V17.1556C69.753 17.5506 69.8026 17.8074 69.9017 17.9259C70.0207 18.0247 70.2785 18.0741 70.675 18.0741H74.1846C74.5812 18.0741 74.829 18.0247 74.9282 17.9259C75.0471 17.8074 75.1066 17.5506 75.1066 17.1556V15.2593H80.4008V17.4815C80.4008 19.042 79.6175 19.8222 78.0511 19.8222H66.6301C65.0637 19.8222 64.2805 19.042 64.2805 17.4815V7.79259C64.2805 6.2321 65.0637 5.45185 66.6301 5.45185Z" fill="#211F1F"/>
<path d="M92.7796 5.39259H94.6831V7.43704H91.7089C90.2614 7.43704 89.5377 8.18765 89.5377 9.68889V19.8222H84.0651V5.45185H89.5377V7.17037C89.9937 5.98518 91.0744 5.39259 92.7796 5.39259Z" fill="#211F1F"/>
<path d="M102.465 19.8222H96.9923V5.45185H102.465V19.8222ZM96.9031 3.28889V0H102.584V3.28889H96.9031Z" fill="#211F1F"/>
<path d="M113.801 5.45185H120.136C121.703 5.45185 122.486 6.2321 122.486 7.79259V19.8222H117.013V8.11852C117.013 7.74321 116.954 7.4963 116.835 7.37778C116.736 7.25926 116.488 7.2 116.091 7.2H113.176C112.463 7.2 112.106 7.50617 112.106 8.11852V19.8222H106.633V5.45185H112.106V6.31111C112.383 5.73827 112.948 5.45185 113.801 5.45185Z" fill="#211F1F"/>
<path d="M132.512 18.0741H135.427C136.141 18.0741 136.498 17.7679 136.498 17.1556V8.11852C136.498 7.50617 136.141 7.2 135.427 7.2H132.512C132.116 7.2 131.858 7.25926 131.739 7.37778C131.64 7.4963 131.59 7.74321 131.59 8.11852V17.1556C131.59 17.5506 131.64 17.8074 131.739 17.9259C131.858 18.0247 132.116 18.0741 132.512 18.0741ZM141.97 18.9333H142V21.6593C142 23.2198 141.217 24 139.65 24H126.921V22.2519H135.605C136.002 22.2519 136.25 22.1926 136.349 22.0741C136.468 21.9556 136.527 21.7086 136.527 21.3333V19.1704H136.498V18.963C136.22 19.5358 135.655 19.8222 134.802 19.8222H128.467C126.901 19.8222 126.118 19.042 126.118 17.4815V7.79259C126.118 6.2321 126.901 5.45185 128.467 5.45185H134.802C135.655 5.45185 136.22 5.73827 136.498 6.31111V5.45185H141.97V18.9333Z" fill="#211F1F"/>
</svg>
