<svg width="65" height="64" viewBox="0 0 65 64" fill="none" xmlns="http://www.w3.org/2000/svg">
<circle cx="11.1668" cy="13.3333" r="5.33333" fill="#00AB4E"/>
<ellipse cx="31.1668" cy="6.66683" rx="5.33333" ry="5.33333" fill="#FFBD17"/>
<ellipse cx="51.1668" cy="10.6668" rx="5.33333" ry="5.33333" fill="#FF4080"/>
<ellipse cx="13.8333" cy="53.3333" rx="5.33333" ry="5.33333" fill="#FF4080"/>
<circle cx="33.8333" cy="57.3333" r="5.33333" fill="#FFBD17"/>
<circle cx="53.8333" cy="50.6668" r="5.33333" fill="#00AB4E"/>
<ellipse cx="57.8333" cy="30.6668" rx="5.33333" ry="5.33333" fill="#00A8E9"/>
<ellipse cx="7.16683" cy="33.3333" rx="5.33333" ry="5.33333" fill="#00A8E9"/>
<path d="M26.8938 30.2725C26.308 29.6867 25.3583 29.6867 24.7725 30.2725C24.1867 30.8583 24.1867 31.808 24.7725 32.3938L26.8938 30.2725ZM30.4998 35.9998L29.4392 37.0605C30.0085 37.6298 30.9257 37.6481 31.5173 37.102L30.4998 35.9998ZM40.1839 29.102C40.7927 28.5401 40.8306 27.5911 40.2687 26.9824C39.7068 26.3737 38.7578 26.3357 38.1491 26.8976L40.1839 29.102ZM12.4998 21.3332L13.9998 21.3332L13.9998 21.3332L12.4998 21.3332ZM15.1665 23.9998L15.1665 22.4998L15.1665 22.4998L15.1665 23.9998ZM43.1665 11.9998L43.1665 13.4998L43.1665 13.4998L43.1665 11.9998ZM40.4998 14.6665L38.9998 14.6665V14.6665H40.4998ZM52.4998 42.6665L50.9998 42.6665L50.9998 42.6665L52.4998 42.6665ZM49.8332 39.9998L49.8332 41.4998H49.8332L49.8332 39.9998ZM21.8332 51.9998L21.8332 50.4998H21.8332V51.9998ZM24.4998 18.6665L24.4998 20.1665L24.4998 20.1665L24.4998 18.6665ZM24.7725 32.3938L29.4392 37.0605L31.5605 34.9392L26.8938 30.2725L24.7725 32.3938ZM31.5173 37.102L40.1839 29.102L38.1491 26.8976L29.4824 34.8976L31.5173 37.102ZM30.9998 10.6665V18.6665H33.9998V10.6665H30.9998ZM53.8332 30.4998H45.8332V33.4998H53.8332V30.4998ZM11.1665 33.4998H19.1665V30.4998H11.1665V33.4998ZM10.9998 15.9998L10.9998 21.3332L13.9998 21.3332L13.9998 15.9998L10.9998 15.9998ZM15.1665 25.4998H19.1665V22.4998H15.1665V25.4998ZM10.9998 21.3332C10.9998 23.6344 12.8653 25.4998 15.1665 25.4998L15.1665 22.4998C14.5222 22.4998 13.9998 21.9775 13.9998 21.3332L10.9998 21.3332ZM48.4998 10.4998L43.1665 10.4998L43.1665 13.4998L48.4998 13.4998L48.4998 10.4998ZM38.9998 14.6665V18.6665H41.9998V14.6665H38.9998ZM43.1665 10.4998C40.8653 10.4998 38.9998 12.3653 38.9998 14.6665L41.9998 14.6665C41.9998 14.0222 42.5222 13.4998 43.1665 13.4998L43.1665 10.4998ZM53.9998 47.9998L53.9998 42.6665L50.9998 42.6665L50.9998 47.9998L53.9998 47.9998ZM49.8332 38.4998H45.8332V41.4998H49.8332V38.4998ZM53.9998 42.6665C53.9998 40.3653 52.1343 38.4998 49.8332 38.4998L49.8332 41.4998C50.4775 41.4998 50.9998 42.0222 50.9998 42.6665L53.9998 42.6665ZM16.4998 53.4998H21.8332V50.4998H16.4998V53.4998ZM25.9998 49.3332V45.3332H22.9998V49.3332H25.9998ZM21.8332 53.4998C24.1344 53.4998 25.9998 51.6344 25.9998 49.3332H22.9998C22.9998 49.9775 22.4775 50.4998 21.8332 50.4998L21.8332 53.4998ZM24.4998 20.1665L40.4998 20.1665L40.4998 17.1665L24.4998 17.1665L24.4998 20.1665ZM20.6665 39.9998V23.9998H17.6665V39.9998H20.6665ZM24.4998 43.8332C22.3827 43.8332 20.6665 42.1169 20.6665 39.9998H17.6665C17.6665 43.7738 20.7259 46.8332 24.4998 46.8332V43.8332ZM44.3332 39.9998C44.3332 42.1169 42.6169 43.8332 40.4998 43.8332V46.8332C44.2738 46.8332 47.3332 43.7738 47.3332 39.9998H44.3332ZM40.4998 20.1665C42.6169 20.1665 44.3332 21.8827 44.3332 23.9998H47.3332C47.3332 20.2259 44.2738 17.1665 40.4998 17.1665V20.1665ZM24.4998 17.1665C20.7259 17.1665 17.6665 20.2259 17.6665 23.9998H20.6665C20.6665 21.8827 22.3827 20.1665 24.4998 20.1665V17.1665ZM34.9998 57.3332C34.9998 58.7139 33.8805 59.8332 32.4998 59.8332V62.8332C35.5374 62.8332 37.9998 60.3707 37.9998 57.3332H34.9998ZM32.4998 59.8332C31.1191 59.8332 29.9998 58.7139 29.9998 57.3332H26.9998C26.9998 60.3707 29.4623 62.8332 32.4998 62.8332V59.8332ZM29.9998 57.3332C29.9998 55.9525 31.1191 54.8332 32.4998 54.8332V51.8332C29.4623 51.8332 26.9998 54.2956 26.9998 57.3332H29.9998ZM32.4998 54.8332C33.8805 54.8332 34.9998 55.9525 34.9998 57.3332H37.9998C37.9998 54.2956 35.5374 51.8332 32.4998 51.8332V54.8332ZM14.9998 51.9998C14.9998 53.3805 13.8805 54.4998 12.4998 54.4998V57.4998C15.5374 57.4998 17.9998 55.0374 17.9998 51.9998H14.9998ZM12.4998 54.4998C11.1191 54.4998 9.99984 53.3805 9.99984 51.9998H6.99984C6.99984 55.0374 9.46227 57.4998 12.4998 57.4998V54.4998ZM9.99984 51.9998C9.99984 50.6191 11.1191 49.4998 12.4998 49.4998V46.4998C9.46227 46.4998 6.99984 48.9623 6.99984 51.9998H9.99984ZM12.4998 49.4998C13.8805 49.4998 14.9998 50.6191 14.9998 51.9998H17.9998C17.9998 48.9623 15.5374 46.4998 12.4998 46.4998V49.4998ZM9.6665 31.9998C9.6665 33.3805 8.54722 34.4998 7.1665 34.4998V37.4998C10.2041 37.4998 12.6665 35.0374 12.6665 31.9998H9.6665ZM7.1665 34.4998C5.78579 34.4998 4.6665 33.3805 4.6665 31.9998H1.6665C1.6665 35.0374 4.12894 37.4998 7.1665 37.4998V34.4998ZM4.6665 31.9998C4.6665 30.6191 5.78579 29.4998 7.1665 29.4998V26.4998C4.12894 26.4998 1.6665 28.9623 1.6665 31.9998H4.6665ZM7.1665 29.4998C8.54722 29.4998 9.6665 30.6191 9.6665 31.9998H12.6665C12.6665 28.9623 10.2041 26.4998 7.1665 26.4998V29.4998ZM14.9998 11.9998C14.9998 13.3805 13.8805 14.4998 12.4998 14.4998V17.4998C15.5374 17.4998 17.9998 15.0374 17.9998 11.9998H14.9998ZM12.4998 14.4998C11.1191 14.4998 9.99984 13.3805 9.99984 11.9998H6.99984C6.99984 15.0374 9.46227 17.4998 12.4998 17.4998V14.4998ZM9.99984 11.9998C9.99984 10.6191 11.1191 9.49984 12.4998 9.49984V6.49984C9.46227 6.49984 6.99984 8.96227 6.99984 11.9998H9.99984ZM12.4998 9.49984C13.8805 9.49984 14.9998 10.6191 14.9998 11.9998H17.9998C17.9998 8.96227 15.5374 6.49984 12.4998 6.49984V9.49984ZM34.9998 6.6665C34.9998 8.04722 33.8805 9.1665 32.4998 9.1665V12.1665C35.5374 12.1665 37.9998 9.70407 37.9998 6.6665H34.9998ZM32.4998 9.1665C31.1191 9.1665 29.9998 8.04722 29.9998 6.6665H26.9998C26.9998 9.70407 29.4623 12.1665 32.4998 12.1665V9.1665ZM29.9998 6.6665C29.9998 5.28579 31.1191 4.1665 32.4998 4.1665V1.1665C29.4623 1.1665 26.9998 3.62894 26.9998 6.6665H29.9998ZM32.4998 4.1665C33.8805 4.1665 34.9998 5.28579 34.9998 6.6665H37.9998C37.9998 3.62894 35.5374 1.1665 32.4998 1.1665V4.1665ZM54.9998 11.9998C54.9998 13.3805 53.8805 14.4998 52.4998 14.4998V17.4998C55.5374 17.4998 57.9998 15.0374 57.9998 11.9998H54.9998ZM52.4998 14.4998C51.1191 14.4998 49.9998 13.3805 49.9998 11.9998H46.9998C46.9998 15.0374 49.4623 17.4998 52.4998 17.4998V14.4998ZM49.9998 11.9998C49.9998 10.6191 51.1191 9.49984 52.4998 9.49984V6.49984C49.4623 6.49984 46.9998 8.96227 46.9998 11.9998H49.9998ZM52.4998 9.49984C53.8805 9.49984 54.9998 10.6191 54.9998 11.9998H57.9998C57.9998 8.96227 55.5374 6.49984 52.4998 6.49984V9.49984ZM60.3332 31.9998C60.3332 33.3805 59.2139 34.4998 57.8332 34.4998V37.4998C60.8707 37.4998 63.3332 35.0374 63.3332 31.9998H60.3332ZM57.8332 34.4998C56.4525 34.4998 55.3332 33.3805 55.3332 31.9998H52.3332C52.3332 35.0374 54.7956 37.4998 57.8332 37.4998V34.4998ZM55.3332 31.9998C55.3332 30.6191 56.4525 29.4998 57.8332 29.4998V26.4998C54.7956 26.4998 52.3332 28.9623 52.3332 31.9998H55.3332ZM57.8332 29.4998C59.2139 29.4998 60.3332 30.6191 60.3332 31.9998H63.3332C63.3332 28.9623 60.8707 26.4998 57.8332 26.4998V29.4998ZM54.9998 51.9998C54.9998 53.3805 53.8805 54.4998 52.4998 54.4998V57.4998C55.5374 57.4998 57.9998 55.0374 57.9998 51.9998H54.9998ZM52.4998 54.4998C51.1191 54.4998 49.9998 53.3805 49.9998 51.9998H46.9998C46.9998 55.0374 49.4623 57.4998 52.4998 57.4998V54.4998ZM49.9998 51.9998C49.9998 50.6191 51.1191 49.4998 52.4998 49.4998V46.4998C49.4623 46.4998 46.9998 48.9623 46.9998 51.9998H49.9998ZM52.4998 49.4998C53.8805 49.4998 54.9998 50.6191 54.9998 51.9998H57.9998C57.9998 48.9623 55.5374 46.4998 52.4998 46.4998V49.4998ZM40.4998 43.8332H32.4998V46.8332H40.4998V43.8332ZM32.4998 43.8332H24.4998V46.8332H32.4998V43.8332ZM33.9998 53.3332V45.3332H30.9998V53.3332H33.9998ZM44.3332 23.9998V31.9998H47.3332V23.9998H44.3332ZM44.3332 31.9998V39.9998H47.3332V31.9998H44.3332Z" fill="black"/>
</svg>
