<svg width="64" height="64" viewBox="0 0 64 64" fill="none" xmlns="http://www.w3.org/2000/svg">
<ellipse cx="6.66634" cy="47.9998" rx="5.33333" ry="5.33333" fill="#FFBD17"/>
<ellipse cx="56.0003" cy="49.3333" rx="5.33333" ry="5.33333" fill="#00AB4E"/>
<ellipse cx="58.6663" cy="7.99984" rx="5.33333" ry="5.33333" fill="#FFBD17"/>
<ellipse cx="21.3333" cy="55.9998" rx="5.33333" ry="5.33333" fill="#FF4080"/>
<ellipse cx="6.66634" cy="30.6668" rx="5.33333" ry="5.33333" fill="#00AB4E"/>
<ellipse cx="44.0003" cy="6.66683" rx="5.33333" ry="5.33333" fill="#FF4080"/>
<circle cx="38.6663" cy="57.3333" r="5.33333" fill="#00A8E9"/>
<circle cx="8.00033" cy="7.99984" r="5.33333" fill="#00A8E9"/>
<path d="M26.667 28.1113L30.4003 32.0002L37.3337 25.3335" stroke="black" stroke-width="3" stroke-linecap="round" stroke-linejoin="round"/>
<path d="M6.66699 10.6672C4.45785 10.6672 2.66699 8.87632 2.66699 6.66718C2.66699 4.45804 4.45785 2.66718 6.66699 2.66718C8.87613 2.66718 10.667 4.45804 10.667 6.66718M6.66699 10.6672C8.87613 10.6672 10.667 8.87632 10.667 6.66718M6.66699 10.6672V28.6665M10.667 6.66718L25.3336 6.66692C27.5427 6.66688 29.3336 8.45775 29.3336 10.6669V17.3338M46.6669 6.66718C46.6669 8.87632 44.8761 10.6672 42.667 10.6672C40.4578 10.6672 38.667 8.87632 38.667 6.66718C38.667 4.45804 40.4578 2.66718 42.667 2.66718C44.8761 2.66718 46.6669 4.45804 46.6669 6.66718ZM46.6669 6.66718L53.3336 6.6665M57.3336 10.6665C55.1244 10.6665 53.3336 8.87564 53.3336 6.6665M57.3336 10.6665C59.5427 10.6665 61.3336 8.87564 61.3336 6.6665C61.3336 4.45736 59.5427 2.6665 57.3336 2.6665C55.1244 2.6665 53.3336 4.45736 53.3336 6.6665M57.3336 10.6665V45.3338M22.0183 34.2005L15.2964 23.6894C14.4865 22.3857 14.4865 20.7561 15.1344 19.4524C15.7823 18.1487 17.2401 17.3339 18.6978 17.3339H45.2618C46.7196 17.3339 48.1773 18.1487 48.8252 19.4524C49.4731 20.7561 49.4731 22.3857 48.9872 23.6894L42.2653 34.2005M22.0183 34.2005L28.7403 44.7116C29.5502 45.8524 30.846 46.6672 32.1418 46.6672C33.4376 46.6672 34.8954 46.0153 35.5433 44.7116L42.2653 34.2005M22.0183 34.2005L9.60234 46.6165M42.2653 34.2005L54.5378 46.4731M26.667 57.3338C26.667 59.543 24.8761 61.3338 22.667 61.3338C20.4579 61.3338 18.667 59.543 18.667 57.3338C18.667 57.269 18.6685 57.2046 18.6716 57.1405C18.7725 55.0212 20.5227 53.3338 22.667 53.3338C24.8761 53.3338 26.667 55.1247 26.667 57.3338ZM26.667 57.3338L36.0003 57.3332M36.0003 57.3332C36.0007 59.542 37.7914 61.3332 40.0003 61.3332C42.2095 61.3332 44.0003 59.5423 44.0003 57.3332C44.0003 55.124 42.2095 53.3332 40.0003 53.3332C37.7912 53.3332 36.0003 55.124 36.0003 57.3332ZM57.3336 45.3338C55.1244 45.3338 53.3336 47.1247 53.3336 49.3338C53.3336 51.543 55.1244 53.3338 57.3336 53.3338C59.5427 53.3338 61.3336 51.543 61.3336 49.3338C61.3336 47.1247 59.5427 45.3338 57.3336 45.3338ZM6.66699 28.6665C4.45785 28.6665 2.66699 30.4574 2.66699 32.6665C2.66699 34.8756 4.45785 36.6665 6.66699 36.6665C8.87613 36.6665 10.667 34.8756 10.667 32.6665C10.667 30.4574 8.87613 28.6665 6.66699 28.6665ZM6.66699 53.3338C4.45785 53.3338 2.66699 51.543 2.66699 49.3338C2.66699 47.1247 4.45785 45.3338 6.66699 45.3338C8.80805 45.3338 10.5562 47.016 10.6619 49.1308C10.6653 49.1981 10.667 49.2658 10.667 49.3338C10.667 50.383 10.2631 51.3377 9.60234 52.0512C8.87171 52.84 7.82702 53.3338 6.66699 53.3338Z" stroke="black" stroke-width="3"/>
</svg>
